<svg xmlns="http://www.w3.org/2000/svg" viewBox="0 0 426.04 407.75"><defs><style>.cls-1{fill:#29b7ea;}.cls-2,.cls-4{fill:#fff;}.cls-3{fill:#231f20;}.cls-4{font-size:85.44px;font-family:NexaBold, Nexa Bold;}.cls-5{letter-spacing:-0.02em;}</style></defs><title>sin slogan</title><g id="Layer_2" data-name="Layer 2"><g id="Layer_1-2" data-name="Layer 1"><rect id="_Rectangle_" data-name="&lt;Rectangle&gt;" class="cls-1" x="9.14" y="-9.14" width="407.75" height="426.04" transform="translate(416.9 -9.15) rotate(90)"/><g id="_Group_" data-name="&lt;Group&gt;"><g id="_Group_2" data-name="&lt;Group&gt;"><path id="_Compound_Path_" data-name="&lt;Compound Path&gt;" class="cls-2" d="M34.72,44.9c-14.82,0-20.88,10.5-13.47,23.34l118.9,205.94c7.41,12.83,19.54,12.83,26.95,0L286,68.24c7.41-12.83,1.35-23.34-13.47-23.34Zm212,91.13-37.07,64.29Z"/><g id="_Group_3" data-name="&lt;Group&gt;"><path id="_Path_" data-name="&lt;Path&gt;" class="cls-2" d="M234.13,157.9l-22.41,38.86c-.13-.17-.24-.37-.36-.54l43.88,77.18A19.41,19.41,0,0,0,272,283.2h0a19.41,19.41,0,0,0,16.83-9.7L403.87,74.41A19.41,19.41,0,1,0,370.26,55l-98,169.76"/><path id="_Path_2" data-name="&lt;Path&gt;" class="cls-3" d="M234.13,157.9,175.8,55.12c-.22-.39-.48-.76-.72-1.13-.12-.18-.22-.37-.35-.55s-.24-.3-.36-.46a19.4,19.4,0,0,0-30.85-.09l-.05.08c-.36.47-.7,1-1,1.47-.14.23-.26.48-.4.72s-.36.6-.51.92-.29.65-.43,1-.22.48-.32.72c-.15.4-.28.82-.4,1.23-.06.18-.13.36-.18.54-.13.46-.22.93-.31,1.4,0,.14-.07.28-.09.42-.09.49-.14,1-.19,1.47,0,.13,0,.25,0,.38,0,.52,0,1,0,1.56,0,.1,0,.21,0,.31,0,.53.05,1.07.11,1.6,0,.09,0,.18,0,.27q.11.92.31,1.84v0c.13.6.29,1.2.48,1.79l0,.06c.19.58.41,1.16.66,1.73l0,.09a19.66,19.66,0,0,0,.89,1.77l.49.87,68.82,121.06c.12.18.23.37.36.54Z"/></g></g><text class="cls-4" transform="translate(19.89 356.88)">wordpl<tspan class="cls-5" x="289.73" y="0">a</tspan><tspan x="340.14" y="0">y</tspan></text></g></g></g></svg>